<?xml version="1.0" standalone="no"?>
<!DOCTYPE svg PUBLIC "-//W3C//DTD SVG 20010904//EN"
 "http://www.w3.org/TR/2001/REC-SVG-20010904/DTD/svg10.dtd">
<svg version="1.0" xmlns="http://www.w3.org/2000/svg"
 width="100.000000pt" height="100.000000pt" viewBox="0 0 100.000000 100.000000"
 preserveAspectRatio="xMidYMid meet">
<metadata>
Created by potrace 1.14, written by Peter Selinger 2001-2017
</metadata>
<g transform="translate(0.000000,100.000000) scale(0.100000,-0.100000)"
fill="#000000" stroke="none">
<path d="M239 881 l-23 -19 -1 -363 c0 -352 0 -365 20 -384 19 -20 31 -21 264
-20 236 1 244 2 261 23 16 19 17 54 17 374 0 194 -2 360 -4 369 -9 33 -50 39
-282 39 -209 0 -231 -2 -252 -19z m503 -19 c18 -18 19 -719 1 -734 -16 -13
-482 -13 -495 0 -6 6 -10 152 -9 368 0 305 2 360 15 369 22 17 471 14 488 -3z"/>
<path d="M485 840 c3 -5 8 -10 11 -10 2 0 4 5 4 10 0 6 -5 10 -11 10 -5 0 -7
-4 -4 -10z"/>
<path d="M264 806 c-2 -6 -3 -139 -2 -296 l3 -285 230 0 230 0 0 295 0 295
-228 1 c-159 1 -230 -3 -233 -10z m432 -15 c7 -1 11 -84 10 -273 l-1 -273
-210 -2 -211 -2 -1 272 c0 150 3 274 8 277 6 4 372 5 405 1z"/>
<path d="M381 656 c-57 -32 -67 -107 -22 -177 26 -42 110 -109 135 -109 15 0
76 37 104 64 75 68 82 185 13 221 -40 20 -64 19 -92 -4 -23 -19 -24 -19 -48 0
-28 22 -56 24 -90 5z m94 -36 c20 -19 23 -19 36 -4 45 54 128 23 129 -49 0
-57 -52 -126 -126 -165 -46 -25 -164 92 -164 163 0 36 50 86 80 80 13 -2 33
-14 45 -25z"/>
<path d="M484 562 c6 -10 -10 -37 -24 -38 -5 -1 -15 -2 -22 -3 -17 -2 3 -18
27 -23 11 -2 21 -9 21 -16 1 -6 2 -17 3 -23 2 -18 21 1 21 22 0 12 7 19 19 19
22 0 39 19 19 21 -7 1 -20 2 -28 3 -10 1 -14 9 -12 24 2 15 -2 22 -13 22 -9 0
-14 -4 -11 -8z"/>
<path d="M471 197 c-17 -17 -13 -45 10 -57 26 -14 51 4 47 33 -4 24 -41 40
-57 24z m39 -27 c0 -5 -7 -10 -15 -10 -8 0 -15 5 -15 10 0 6 7 10 15 10 8 0
15 -4 15 -10z"/>
</g>
</svg>
